<svg preserveAspectRatio="none" width="32" height="34" viewBox="0 0 32 34" fill="none" xmlns="http://www.w3.org/2000/svg">
<path fill-rule="evenodd" clip-rule="evenodd" d="M16 17C20.834 17 24.75 13.2705 24.75 8.66667C24.75 4.06286 20.834 0.333333 16 0.333333C11.166 0.333333 7.25 4.06286 7.25 8.66667C7.25 13.2705 11.166 17 16 17ZM16 3.66667C18.901 3.66667 21.25 5.90381 21.25 8.66667C21.25 11.4295 18.901 13.6667 16 13.6667C13.099 13.6667 10.75 11.4295 10.75 8.66667C10.75 5.90381 13.099 3.66667 16 3.66667ZM31.75 32C31.75 32.9205 30.9665 33.6667 30 33.6667C29.0335 33.6667 28.25 32.9205 28.25 32V28.6667C28.25 26.2332 21.523 23.6667 16 23.6667C10.477 23.6667 3.75 26.2332 3.75 28.6667V32C3.75 32.9205 2.9665 33.6667 2 33.6667C1.0335 33.6667 0.25 32.9205 0.25 32V28.6667C0.25 23.5588 8.70422 20.3333 16 20.3333C23.2958 20.3333 31.75 23.5588 31.75 28.6667V32Z" fill="black"/>
</svg>
