<svg preserveAspectRatio="none" width="32" height="22" viewBox="0 0 32 22" fill="none" xmlns="http://www.w3.org/2000/svg">
<path fill-rule="evenodd" clip-rule="evenodd" d="M29.9167 22C30.9292 22 31.75 21.1792 31.75 20.1667V20.1667C31.75 19.1541 30.9292 18.3333 29.9167 18.3333H2.08333C1.07081 18.3333 0.25 19.1541 0.25 20.1667V20.1667C0.25 21.1792 1.07081 22 2.08333 22H29.9167ZM29.9167 12.8333C30.9292 12.8333 31.75 12.0125 31.75 11V11C31.75 9.98748 30.9292 9.16667 29.9167 9.16667H2.08333C1.07081 9.16667 0.25 9.98748 0.25 11V11C0.25 12.0125 1.07081 12.8333 2.08333 12.8333H29.9167ZM0.25 1.83333C0.25 2.84586 1.07081 3.66667 2.08333 3.66667H29.9167C30.9292 3.66667 31.75 2.84586 31.75 1.83333V1.83333C31.75 0.820812 30.9292 0 29.9167 0H2.08333C1.07081 0 0.25 0.820812 0.25 1.83333V1.83333Z" fill="black"/>
</svg>
